<svg width="50" height="50" viewBox="0 0 50 50" fill="none" xmlns="http://www.w3.org/2000/svg">
<path d="M36.195 35C34.6037 36.617 32.6675 37.8534 30.5311 38.6169C28.3947 39.3804 26.1134 39.6512 23.8576 39.409C21.6019 39.1668 19.43 38.418 17.5044 37.2184C15.5787 36.0188 13.9491 34.3996 12.7373 32.4816C11.5255 30.5637 10.7628 28.3966 10.5062 26.1425C10.2497 23.8883 10.5059 21.6053 11.2558 19.4641C12.0056 17.3229 13.2297 15.3788 14.8365 13.7772C16.4433 12.1756 18.3914 10.9579 20.535 10.215C20.8701 10.0979 21.2316 10.0778 21.5776 10.1571C21.9237 10.2363 22.2403 10.4117 22.4911 10.663C22.7419 10.9143 22.9166 11.2313 22.9951 11.5775C23.0736 11.9237 23.0528 12.2851 22.935 12.62C22.2068 14.6253 22.0653 16.7966 22.5273 18.8794C22.9893 20.9622 24.0355 22.8702 25.5432 24.3795C27.051 25.8888 28.9578 26.937 31.0401 27.4012C33.1225 27.8653 35.294 27.7261 37.3 27C37.6346 26.8835 37.9953 26.8637 38.3407 26.9428C38.6861 27.0219 39.0022 27.1967 39.2527 27.4473C39.5033 27.6978 39.6781 28.0139 39.7572 28.3593C39.8363 28.7047 39.8165 29.0654 39.7 29.4C38.9674 31.5064 37.7694 33.4205 36.195 35Z" fill="#333333"/>
</svg>
