<svg width="50" height="50" viewBox="0 0 50 50" fill="none" xmlns="http://www.w3.org/2000/svg">
<path fill-rule="evenodd" clip-rule="evenodd" d="M25.105 14.665C23.107 14.664 21.1536 15.2556 19.4919 16.3651C17.8302 17.4745 16.5348 19.0518 15.7698 20.8976C15.0047 22.7433 14.8043 24.7745 15.1938 26.7342C15.5834 28.6939 16.5454 30.494 17.9582 31.9068C19.371 33.3196 21.1711 34.2816 23.1308 34.6712C25.0905 35.0607 27.1217 34.8603 28.9674 34.0952C30.8132 33.3302 32.3905 32.0348 33.4999 30.3731C34.6094 28.7114 35.201 26.758 35.2 24.76C35.196 22.0839 34.1312 19.5185 32.2389 17.6261C30.3465 15.7338 27.7811 14.669 25.105 14.665Z" fill="white"/>
<path fill-rule="evenodd" clip-rule="evenodd" d="M25.105 6C24.9155 6 24.7278 6.03741 24.5528 6.11009C24.3777 6.18277 24.2188 6.28929 24.085 6.42353C23.9512 6.55778 23.8452 6.71711 23.7732 6.8924C23.7011 7.06769 23.6643 7.25548 23.665 7.445V10.33C23.6867 10.6979 23.8481 11.0436 24.1162 11.2964C24.3844 11.5492 24.739 11.69 25.1075 11.69C25.476 11.69 25.8306 11.5492 26.0988 11.2964C26.3669 11.0436 26.5283 10.6979 26.55 10.33V7.455C26.5513 7.2644 26.5149 7.07542 26.4429 6.89895C26.3709 6.72248 26.2646 6.562 26.1303 6.42676C25.996 6.29152 25.8363 6.18419 25.6603 6.11094C25.4843 6.0377 25.2956 6 25.105 6V6Z" fill="white"/>
<path fill-rule="evenodd" clip-rule="evenodd" d="M25.105 37.74C24.9155 37.74 24.7278 37.7774 24.5528 37.8501C24.3777 37.9228 24.2188 38.0293 24.085 38.1635C23.9512 38.2978 23.8452 38.4571 23.7732 38.6324C23.7011 38.8077 23.6643 38.9955 23.665 39.185V42.07C23.6867 42.4379 23.8481 42.7836 24.1162 43.0364C24.3844 43.2892 24.739 43.43 25.1075 43.43C25.476 43.43 25.8306 43.2892 26.0988 43.0364C26.3669 42.7836 26.5283 42.4379 26.55 42.07V39.185C26.55 38.8018 26.3978 38.4342 26.1268 38.1632C25.8558 37.8922 25.4882 37.74 25.105 37.74V37.74Z" fill="white"/>
<path fill-rule="evenodd" clip-rule="evenodd" d="M38.36 11.5C38.0894 11.2316 37.7236 11.081 37.3425 11.081C36.9613 11.081 36.5956 11.2316 36.325 11.5L34.285 13.54C34.0145 13.8105 33.8625 14.1774 33.8625 14.56C33.8625 14.9426 34.0145 15.3095 34.285 15.58C34.5555 15.8505 34.9224 16.0025 35.305 16.0025C35.6876 16.0025 36.0545 15.8505 36.325 15.58L38.36 13.54C38.4942 13.4062 38.6008 13.2473 38.6734 13.0722C38.7461 12.8972 38.7835 12.7095 38.7835 12.52C38.7835 12.3305 38.7461 12.1428 38.6734 11.9678C38.6008 11.7927 38.4942 11.6338 38.36 11.5V11.5Z" fill="white"/>
<path fill-rule="evenodd" clip-rule="evenodd" d="M15.93 33.94C15.6592 33.6701 15.2924 33.5185 14.91 33.5185C14.5276 33.5185 14.1608 33.6701 13.89 33.94L11.85 36C11.6384 36.2792 11.5358 36.626 11.5614 36.9754C11.5871 37.3248 11.7393 37.6529 11.9895 37.8982C12.2396 38.1434 12.5707 38.2891 12.9205 38.3078C13.2704 38.3266 13.615 38.2171 13.89 38L15.93 36C16.0661 35.8652 16.1741 35.7048 16.2478 35.528C16.3215 35.3512 16.3594 35.1615 16.3594 34.97C16.3594 34.7785 16.3215 34.5888 16.2478 34.412C16.1741 34.2353 16.0661 34.0748 15.93 33.94V33.94Z" fill="white"/>
<path fill-rule="evenodd" clip-rule="evenodd" d="M6.355 24.76C6.355 25.1432 6.50724 25.5108 6.77823 25.7818C7.04922 26.0528 7.41676 26.205 7.8 26.205H10.685C11.0529 26.1833 11.3986 26.0219 11.6514 25.7538C11.9042 25.4856 12.045 25.131 12.045 24.7625C12.045 24.394 11.9042 24.0394 11.6514 23.7712C11.3986 23.5031 11.0529 23.3417 10.685 23.32H7.8C7.61047 23.3193 7.42268 23.3561 7.2474 23.4282C7.07211 23.5002 6.91277 23.6062 6.77853 23.74C6.64428 23.8738 6.53776 24.0327 6.46509 24.2078C6.39241 24.3828 6.35499 24.5705 6.355 24.76Z" fill="white"/>
<path fill-rule="evenodd" clip-rule="evenodd" d="M38.085 24.76C38.085 25.1432 38.2372 25.5108 38.5082 25.7818C38.7792 26.0528 39.1468 26.205 39.53 26.205H42.415C42.7829 26.1833 43.1286 26.0219 43.3814 25.7538C43.6342 25.4856 43.775 25.131 43.775 24.7625C43.775 24.394 43.6342 24.0394 43.3814 23.7712C43.1286 23.5031 42.7829 23.3417 42.415 23.32H39.53C39.1476 23.32 38.7808 23.4716 38.51 23.7415C38.2391 24.0114 38.0863 24.3776 38.085 24.76V24.76Z" fill="white"/>
<path fill-rule="evenodd" clip-rule="evenodd" d="M11.845 11.5C11.5763 11.7715 11.4256 12.138 11.4256 12.52C11.4256 12.902 11.5763 13.2685 11.845 13.54L13.885 15.575C14.0186 15.7089 14.1773 15.8153 14.352 15.8879C14.5267 15.9605 14.714 15.998 14.9032 15.9982C15.0924 15.9985 15.2798 15.9614 15.4547 15.8892C15.6296 15.817 15.7886 15.7111 15.9225 15.5775C16.0564 15.4439 16.1628 15.2852 16.2354 15.1105C16.308 14.9358 16.3455 14.7485 16.3457 14.5593C16.346 14.3701 16.3089 14.1827 16.2367 14.0078C16.1646 13.8329 16.0586 13.6739 15.925 13.54L13.885 11.5C13.7512 11.3658 13.5923 11.2592 13.4172 11.1866C13.2422 11.1139 13.0545 11.0765 12.865 11.0765C12.6755 11.0765 12.4878 11.1139 12.3128 11.1866C12.1377 11.2592 11.9788 11.3658 11.845 11.5V11.5Z" fill="white"/>
<path fill-rule="evenodd" clip-rule="evenodd" d="M34.285 33.94C34.0151 34.2108 33.8635 34.5776 33.8635 34.96C33.8635 35.3424 34.0151 35.7092 34.285 35.98L36.325 38C36.6 38.2171 36.9446 38.3266 37.2945 38.3078C37.6444 38.2891 37.9754 38.1434 38.2255 37.8982C38.4757 37.6529 38.6279 37.3248 38.6536 36.9754C38.6792 36.626 38.5767 36.2792 38.365 36L36.325 33.96C36.1925 33.8244 36.0346 33.7164 35.8603 33.6419C35.686 33.5675 35.4987 33.5283 35.3092 33.5264C35.1196 33.5246 34.9316 33.5602 34.7559 33.6311C34.5801 33.7021 34.4201 33.8071 34.285 33.94V33.94Z" fill="white"/>
</svg>
