<svg width="50" height="50" viewBox="0 0 50 50" fill="none" xmlns="http://www.w3.org/2000/svg">
<path d="M29.72 35.8933C29.5733 35.8933 29.4133 35.8534 29.28 35.7867C28.7867 35.5334 28.5866 34.9334 28.8266 34.44L31.68 28.7467C31.8533 28.4133 32.2 28.2 32.5733 28.2C32.9466 28.2 33.2933 28.4134 33.4667 28.76L36.32 34.4534C36.5733 34.9467 36.3733 35.5466 35.8666 35.8C35.3733 36.0533 34.7733 35.8534 34.52 35.3467L32.5733 31.44L30.6266 35.3467C30.44 35.6934 30.08 35.8933 29.72 35.8933Z" fill="currentColor"/>
<path d="M34.9069 34.8799H30.2135C29.6669 34.8799 29.2135 34.4265 29.2135 33.8799C29.2135 33.3332 29.6669 32.8799 30.2135 32.8799H34.9069C35.4535 32.8799 35.9069 33.3332 35.9069 33.8799C35.9069 34.4265 35.4669 34.8799 34.9069 34.8799Z" fill="currentColor"/>
<path d="M32.5598 40.3334C28.2798 40.3334 24.7865 36.8534 24.7865 32.56C24.7865 28.2667 28.2665 24.7868 32.5598 24.7868C36.8398 24.7868 40.3331 28.2667 40.3331 32.56C40.3331 36.8534 36.8531 40.3334 32.5598 40.3334ZM32.5598 26.8C29.3731 26.8 26.7865 29.3867 26.7865 32.5734C26.7865 35.7601 29.3731 38.3467 32.5598 38.3467C35.7331 38.3467 38.3331 35.7601 38.3331 32.5734C38.3331 29.3867 35.7465 26.8 32.5598 26.8Z" fill="currentColor"/>
<path d="M16.48 26.9333C15 26.9333 13.8267 26.52 13 25.72C12.12 24.8666 11.6667 23.5733 11.6667 21.9067V16.68C11.6667 13.44 13.4533 11.6533 16.6933 11.6533H21.92C23.5867 11.6533 24.8667 12.0933 25.7333 12.9867C26.5733 13.8533 26.9867 15.1067 26.9467 16.7067V21.9067C26.9867 23.5333 26.5733 24.8133 25.7067 25.68C24.84 26.5467 23.56 26.9467 21.9067 26.92H16.7067C16.6133 26.9333 16.5467 26.9333 16.48 26.9333ZM16.6933 13.6667C14.5467 13.6667 13.6667 14.5467 13.6667 16.6934V21.92C13.6667 23.0267 13.9067 23.8266 14.3867 24.2933C14.8533 24.7466 15.6 24.9467 16.6533 24.9333H21.9067C23.0267 24.96 23.8 24.7333 24.2667 24.2667C24.7333 23.8 24.9467 23.0133 24.92 21.9333V16.68C24.9467 15.6133 24.7333 14.8533 24.28 14.3866C23.8133 13.9066 23.0133 13.6667 21.9067 13.6667H16.6933V13.6667Z" fill="currentColor"/>
<path d="M21.9999 18.7998H16.5866C16.0399 18.7998 15.5866 18.3465 15.5866 17.7998C15.5866 17.2531 16.0399 16.7998 16.5866 16.7998H21.9999C22.5466 16.7998 22.9999 17.2531 22.9999 17.7998C22.9999 18.3465 22.5599 18.7998 21.9999 18.7998Z" fill="currentColor"/>
<path d="M19.3066 18.7999C18.76 18.7999 18.3066 18.3466 18.3066 17.7999V16.8932C18.3066 16.3466 18.76 15.8932 19.3066 15.8932C19.8533 15.8932 20.3066 16.3466 20.3066 16.8932V17.7999C20.3066 18.3466 19.8533 18.7999 19.3066 18.7999Z" fill="currentColor"/>
<path d="M16.5866 23.0133C16.0399 23.0133 15.5866 22.5599 15.5866 22.0133C15.5866 21.4666 16.0399 21.0133 16.5866 21.0133C18.2799 21.0133 19.6533 19.5733 19.6533 17.7866C19.6533 17.24 20.1066 16.7866 20.6533 16.7866C21.1999 16.7866 21.6533 17.24 21.6533 17.7866C21.6533 20.6666 19.3866 23.0133 16.5866 23.0133Z" fill="currentColor"/>
<path d="M22.0132 23.0133C20.7732 23.0133 19.5866 22.3866 18.7466 21.28C18.4132 20.84 18.5066 20.2132 18.9466 19.8799C19.3866 19.5466 20.0132 19.6399 20.3466 20.0799C20.7999 20.6933 21.3999 21.0266 22.0132 21.0266C22.5599 21.0266 23.0132 21.4799 23.0132 22.0266C23.0132 22.5733 22.5599 23.0133 22.0132 23.0133Z" fill="currentColor"/>
<path d="M22 40.3333C16.3067 40.3333 11.6667 35.6933 11.6667 30C11.6667 29.4533 12.12 29 12.6667 29C13.2133 29 13.6667 29.4533 13.6667 30C13.6667 33.9467 16.4133 37.2534 20.1067 38.12L19.7467 37.52C19.4667 37.04 19.6133 36.4266 20.0933 36.1466C20.56 35.8666 21.1867 36.0133 21.4667 36.4933L22.8667 38.8267C23.0533 39.1333 23.0533 39.52 22.88 39.8267C22.6933 40.1333 22.36 40.3333 22 40.3333Z" fill="currentColor"/>
<path d="M39.3332 23C38.7866 23 38.3332 22.5467 38.3332 22C38.3332 18.0533 35.5866 14.7466 31.8932 13.88L32.2533 14.48C32.5333 14.96 32.3866 15.5733 31.9066 15.8533C31.4399 16.1333 30.8132 15.9867 30.5332 15.5067L29.1333 13.1733C28.9466 12.8667 28.9466 12.48 29.1199 12.1733C29.2932 11.8533 29.6266 11.6667 29.9866 11.6667C35.6799 11.6667 40.3199 16.3067 40.3199 22C40.3333 22.5467 39.8799 23 39.3332 23Z" fill="currentColor"/>
</svg>
